<svg version="1.1" id="Layer_1" xmlns="http://www.w3.org/2000/svg" xmlns:xlink="http://www.w3.org/1999/xlink" x="0px" y="0px"
	 width="100%" viewBox="0 0 3000 3000" enable-background="new 0 0 3000 3000" xml:space="preserve">
<path fill="#FFBA00" opacity="1.000000" stroke="none" 
	d="
M2.000001,2750.000000 
	C2.000000,1916.601196 2.000000,1083.202393 2.915118,249.031738 
	C6.162688,248.279221 8.495139,248.315567 10.827590,248.315582 
	C1004.558960,248.318024 1998.290405,248.318314 2992.021729,248.304916 
	C2995.347900,248.304886 2998.673828,248.106003 3002.000000,248.000000 
	C3002.000000,1081.398804 3002.000000,1914.797485 3001.084717,2748.968262 
	C2997.836914,2749.720703 2995.504639,2749.684326 2993.172119,2749.684326 
	C1999.440796,2749.681885 1005.709534,2749.681641 11.978274,2749.695068 
	C8.652183,2749.695312 5.326093,2749.894043 2.000001,2750.000000 
M1932.028687,1555.892578 
	C1933.673584,1558.396729 1935.293213,1560.917725 1936.966919,1563.402466 
	C2054.972412,1738.576050 2172.950684,1913.767700 2291.125488,2088.826904 
	C2295.138672,2094.772217 2295.745117,2099.287354 2292.699951,2105.934814 
	C2267.734863,2160.436279 2243.195801,2215.132568 2218.529785,2269.770996 
	C2181.256592,2352.336670 2143.979492,2434.900879 2106.731445,2517.478271 
	C2105.280273,2520.695312 2104.108887,2524.038330 2102.468018,2528.177734 
	C2131.432861,2528.177734 2158.978760,2528.177734 2187.020752,2528.177734 
	C2253.121094,2381.748779 2319.122314,2235.539551 2384.997070,2089.610352 
	C2263.900879,1909.877441 2143.322754,1730.913086 2023.107544,1552.487915 
	C1992.015503,1552.487915 1962.051880,1552.487915 1931.123657,1552.406006 
	C1930.914551,1552.652588 1930.479004,1553.027466 1930.534058,1553.124634 
	C1930.834229,1553.654419 1931.254883,1554.115967 1932.028687,1555.892578 
M1608.054688,1557.937012 
	C1610.075806,1560.993286 1612.074097,1564.064941 1614.121216,1567.103638 
	C1731.233765,1740.931763 1848.310059,1914.784058 1965.624634,2088.475586 
	C1969.944580,2094.871826 1971.310425,2100.113281 1966.988892,2106.533203 
	C1966.255005,2107.623291 1965.863770,2108.944336 1965.315430,2110.159180 
	C1904.045532,2245.879883 1842.773560,2381.599609 1781.516724,2517.326416 
	C1780.054321,2520.566162 1778.753052,2523.878418 1776.977661,2528.106934 
	C1805.858887,2528.106934 1833.386353,2528.106934 1861.720703,2528.106934 
	C1927.659424,2382.031738 1993.658325,2235.823486 2059.664062,2089.600098 
	C1938.811768,1910.228271 1818.177979,1731.180786 1697.713135,1552.383789 
	C1667.369629,1552.383789 1637.723999,1552.383789 1606.690186,1552.338745 
	C1607.005127,1553.779541 1607.320190,1555.220459 1608.054688,1557.937012 
M1768.867188,1552.364258 
	C1769.217407,1553.629028 1769.567627,1554.893799 1770.362671,1557.443848 
	C1772.577026,1560.771606 1774.774780,1564.110474 1777.008057,1567.425537 
	C1893.535889,1740.395874 2010.039185,1913.382935 2126.697021,2086.265625 
	C2131.367188,2093.186523 2133.221680,2099.084961 2129.461670,2107.345459 
	C2090.273682,2193.436523 2051.426514,2279.682861 2012.496948,2365.891357 
	C1988.144165,2419.820068 1963.812256,2473.758057 1939.323120,2528.019775 
	C1967.886475,2528.019775 1996.049561,2528.019775 2024.432251,2528.019775 
	C2090.492920,2381.662598 2156.349609,2235.757324 2222.245605,2089.765137 
	C2220.458984,2087.002686 2218.886719,2084.481934 2217.228027,2082.019531 
	C2117.077637,1933.367065 2016.920410,1784.719360 1916.763916,1636.071045 
	C1899.264282,1610.098511 1881.755737,1584.131836 1864.282227,1558.141846 
	C1862.024902,1554.784180 1860.073242,1551.882080 1855.033203,1551.947144 
	C1826.718994,1552.312866 1798.399780,1552.288574 1768.867188,1552.364258 
z"/>
<path fill="#FFFFFF" opacity="1.000000" stroke="none" 
	d="
M2.000001,2750.922363 
	C5.326093,2749.894043 8.652183,2749.695312 11.978274,2749.695068 
	C1005.709534,2749.681641 1999.440796,2749.681885 2993.172119,2749.684326 
	C2995.504639,2749.684326 2997.836914,2749.720703 3001.084717,2749.870117 
	C3002.000000,2833.979736 3002.000000,2917.959473 3002.000000,3001.892334 
	C2002.000000,3001.892334 1002.000000,3001.892334 2.000000,3001.892334 
	C2.000000,2918.471436 2.000000,2835.158203 2.000001,2750.922363 
z"/>
<path fill="#FFFFFF" opacity="1.000000" stroke="none" 
	d="
M3002.000000,247.077484 
	C2998.673828,248.106003 2995.347900,248.304886 2992.021729,248.304916 
	C1998.290405,248.318314 1004.558960,248.318024 10.827590,248.315582 
	C8.495139,248.315567 6.162688,248.279221 2.915118,248.129929 
	C2.000000,166.019852 2.000000,84.039696 2.000000,2.107024 
	C1002.000000,2.107024 2002.000000,2.107024 3002.000000,2.107024 
	C3002.000000,83.527695 3002.000000,164.841339 3002.000000,247.077484 
z"/>
<path fill="#FFFEFD" opacity="1.000000" stroke="none" 
	d="
M1770.082275,1552.397339 
	C1798.399780,1552.288574 1826.718994,1552.312866 1855.033203,1551.947144 
	C1860.073242,1551.882080 1862.024902,1554.784180 1864.282227,1558.141846 
	C1881.755737,1584.131836 1899.264282,1610.098511 1916.763916,1636.071045 
	C2016.920410,1784.719360 2117.077637,1933.367065 2217.228027,2082.019531 
	C2218.886719,2084.481934 2220.458984,2087.002686 2222.245605,2089.765137 
	C2156.349609,2235.757324 2090.492920,2381.662598 2024.432251,2528.019775 
	C1996.049561,2528.019775 1967.886475,2528.019775 1939.323120,2528.019775 
	C1963.812256,2473.758057 1988.144165,2419.820068 2012.496948,2365.891357 
	C2051.426514,2279.682861 2090.273682,2193.436523 2129.461670,2107.345459 
	C2133.221680,2099.084961 2131.367188,2093.186523 2126.697021,2086.265625 
	C2010.039185,1913.382935 1893.535889,1740.395874 1777.008057,1567.425537 
	C1774.774780,1564.110474 1772.577026,1560.771606 1770.203735,1556.176270 
	C1770.057251,1554.071533 1770.069702,1553.234375 1770.082275,1552.397339 
z"/>
<path fill="#FFFEFD" opacity="1.000000" stroke="none" 
	d="
M1608.078369,1552.383789 
	C1637.723999,1552.383789 1667.369629,1552.383789 1697.713135,1552.383789 
	C1818.177979,1731.180786 1938.811768,1910.228271 2059.664062,2089.600098 
	C1993.658325,2235.823486 1927.659424,2382.031738 1861.720703,2528.106934 
	C1833.386353,2528.106934 1805.858887,2528.106934 1776.977661,2528.106934 
	C1778.753052,2523.878418 1780.054321,2520.566162 1781.516724,2517.326416 
	C1842.773560,2381.599609 1904.045532,2245.879883 1965.315430,2110.159180 
	C1965.863770,2108.944336 1966.255005,2107.623291 1966.988892,2106.533203 
	C1971.310425,2100.113281 1969.944580,2094.871826 1965.624634,2088.475586 
	C1848.310059,1914.784058 1731.233765,1740.931763 1614.121216,1567.103638 
	C1612.074097,1564.064941 1610.075806,1560.993286 1607.960693,1556.589844 
	C1607.937256,1554.289795 1608.007812,1553.336792 1608.078369,1552.383789 
z"/>
<path fill="#FFFEFD" opacity="1.000000" stroke="none" 
	d="
M1932.088135,1552.487915 
	C1962.051880,1552.487915 1992.015503,1552.487915 2023.107544,1552.487915 
	C2143.322754,1730.913086 2263.900879,1909.877441 2384.997070,2089.610352 
	C2319.122314,2235.539551 2253.121094,2381.748779 2187.020752,2528.177734 
	C2158.978760,2528.177734 2131.432861,2528.177734 2102.468018,2528.177734 
	C2104.108887,2524.038330 2105.280273,2520.695312 2106.731445,2517.478271 
	C2143.979492,2434.900879 2181.256592,2352.336670 2218.529785,2269.770996 
	C2243.195801,2215.132568 2267.734863,2160.436279 2292.699951,2105.934814 
	C2295.745117,2099.287354 2295.138672,2094.772217 2291.125488,2088.826904 
	C2172.950684,1913.767700 2054.972412,1738.576050 1936.966919,1563.402466 
	C1935.293213,1560.917725 1933.673584,1558.396729 1931.999390,1554.729736 
	C1932.009399,1553.207275 1932.048706,1552.847656 1932.088135,1552.487915 
z"/>
<path fill="#FFF3D7" opacity="1.000000" stroke="none" 
	d="
M1607.384277,1552.361328 
	C1608.007812,1553.336792 1607.937256,1554.289795 1607.750977,1555.952026 
	C1607.320190,1555.220459 1607.005127,1553.779541 1607.384277,1552.361328 
z"/>
<path fill="#FFF3D7" opacity="1.000000" stroke="none" 
	d="
M1769.474731,1552.380859 
	C1770.069702,1553.234375 1770.057251,1554.071533 1769.981323,1555.533569 
	C1769.567627,1554.893799 1769.217407,1553.629028 1769.474731,1552.380859 
z"/>
<path fill="#FFF3D7" opacity="1.000000" stroke="none" 
	d="
M1931.605957,1552.447021 
	C1932.048706,1552.847656 1932.009399,1553.207275 1931.802124,1554.083984 
	C1931.254883,1554.115967 1930.834229,1553.654419 1930.534058,1553.124634 
	C1930.479004,1553.027466 1930.914551,1552.652588 1931.605957,1552.447021 
z"/>
</svg>